<svg id="mermaidChart0" width="100" height="63.82978723404255" viewBox="-50 -10 450 231" style="width: 92; height: 63.82978723404255;" version="1.1" xmlns="http://www.w3.org/2000/svg" xmlns:xlink="http://www.w3.org/1999/xlink"><style type="text/css" title="mermaid-svg-internal-css">/*  */
.actor { stroke: #ccccff; fill: #ececff;  }
text.actor { fill: #000000; stroke: none;  }
.actor-line { stroke: #808080;  }
.messageline0 { stroke-width: 1.5px; stroke: #333333;  }
.messageline1 { stroke-width: 1.5px; stroke: #333333;  }
#arrowhead { fill: #333333;  }
#crosshead path { fill: #333333 !important; stroke: #333333 !important;  }
.messagetext { fill: #333333; stroke: none;  }
text { font-family: 'trebuchet ms', verdana, arial; font-size: 14px;  }
/*  */
</style><g/><g><line id="actor0" x1="75" y1="5" x2="75" y2="220" class="actor-line" stroke-width="0.5px" stroke="#999"/><rect x="0" y="0" fill="#eaeaea" stroke="#666" width="150" height="65" rx="3" ry="3" class="actor"/><text x="75" y="37.5" class="actor" style="text-anchor: middle; ">Alice</text></g><g><line id="actor1" x1="275" y1="5" x2="275" y2="220" class="actor-line" stroke-width="0.5px" stroke="#999"/><rect x="200" y="0" fill="#eaeaea" stroke="#666" width="150" height="65" rx="3" ry="3" class="actor"/><text x="275" y="37.5" class="actor" style="text-anchor: middle; ">John</text></g><defs><marker id="arrowhead" refX="5" refY="2" markerWidth="6" markerHeight="4" orient="auto"><path d="M 0,0 V 4 L6,2 Z"/></marker></defs><defs><marker id="crosshead" markerWidth="15" markerHeight="8" orient="auto" refX="16" refY="4"><path fill="black" stroke="#000000" style="stroke-dasharray: 0px, 0px; " stroke-width="1px" d="M 9,2 V 6 L16,4 Z"/><path fill="none" stroke="#000000" style="stroke-dasharray: 0px, 0px; " stroke-width="1px" d="M 0,1 L 6,7 M 6,1 L 0,7"/></marker></defs><g><text x="175" y="93" style="text-anchor: middle; " class="messageText">Hello John, how are you?</text><line x1="75" y1="100" x2="275" y2="100" class="messageLine0" stroke-width="2" stroke="black" style="fill: none; " marker-end="url(about://blank#arrowhead)"/></g><g><text x="175" y="128" style="text-anchor: middle; " class="messageText">Great!</text><line x1="275" y1="135" x2="75" y2="135" style="stroke-dasharray: 3px, 3px; fill: none; " class="messageLine1" stroke-width="2" stroke="black" marker-end="url(about://blank#arrowhead)"/></g><g><rect x="0" y="155" fill="#eaeaea" stroke="#666" width="150" height="65" rx="3" ry="3" class="actor"/><text x="75" y="192.5" class="actor" style="text-anchor: middle; ">Alice</text></g><g><rect x="200" y="155" fill="#eaeaea" stroke="#666" width="150" height="65" rx="3" ry="3" class="actor"/><text x="275" y="192.5" class="actor" style="text-anchor: middle; ">John</text></g></svg>