
<svg viewBox="-50 -10 450 231" style="max-width:450px;" height="100%" xmlns="http://www.w3.org/2000/svg" width="100%" id="mermaidChart23"><style title="mermaid-svg-internal-css" type="text/css">/*  */
.actor { stroke: rgb(19, 84, 12); fill: rgb(205, 228, 152); }
text.actor { fill: black; stroke: none; }
.actor-line { stroke: grey; }
.messageLine0 { stroke-width: 1.5; stroke: rgb(51, 51, 51); }
.messageLine1 { stroke-width: 1.5; stroke: rgb(51, 51, 51); }
#arrowhead { fill: rgb(51, 51, 51); }
#crosshead path { fill: rgb(51, 51, 51) ! important; stroke: rgb(51, 51, 51) ! important; }
.messageText { fill: rgb(51, 51, 51); stroke: none; }
text { font-family: "trebuchet ms",verdana,arial; font-size: 14px; }
/*  */
</style><g></g><g><line stroke="#999" stroke-width="0.5px" class="actor-line" y2="220" x2="75" y1="5" x1="75" id="actor0"></line><rect class="actor" ry="3" rx="3" height="65" width="150" stroke="#666" fill="#eaeaea" y="0" x="0"></rect><text style="text-anchor: middle;" class="actor" y="37.5" x="75">Alice</text></g><g><line stroke="#999" stroke-width="0.5px" class="actor-line" y2="220" x2="275" y1="5" x1="275" id="actor1"></line><rect class="actor" ry="3" rx="3" height="65" width="150" stroke="#666" fill="#eaeaea" y="0" x="200"></rect><text style="text-anchor: middle;" class="actor" y="37.5" x="275">John</text></g><defs><marker orient="auto" markerHeight="4" markerWidth="6" refY="2" refX="5" id="arrowhead"><path d="M 0,0 V 4 L6,2 Z"></path></marker></defs><defs><marker refY="4" refX="16" orient="auto" markerHeight="8" markerWidth="15" id="crosshead"><path d="M 9,2 V 6 L16,4 Z" stroke-width="1px" style="stroke-dasharray: 0, 0;" stroke="#000000" fill="black"></path><path d="M 0,1 L 6,7 M 6,1 L 0,7" stroke-width="1px" style="stroke-dasharray: 0, 0;" stroke="#000000" fill="none"></path></marker></defs><g><text class="messageText" style="text-anchor: middle;" y="93" x="175">Hello John, how are you?</text><line marker-end="url(http://knsv.github.io/mermaid/#arrowhead)" style="fill: none;" stroke="black" stroke-width="2" class="messageLine0" y2="100" x2="275" y1="100" x1="75"></line></g><g><text class="messageText" style="text-anchor: middle;" y="128" x="175">Great!</text><line marker-end="url(http://knsv.github.io/mermaid/#arrowhead)" stroke="black" stroke-width="2" class="messageLine1" style="stroke-dasharray: 3, 3; fill: none;" y2="135" x2="75" y1="135" x1="275"></line></g><g><rect class="actor" ry="3" rx="3" height="65" width="150" stroke="#666" fill="#eaeaea" y="155" x="0"></rect><text style="text-anchor: middle;" class="actor" y="192.5" x="75">Alice</text></g><g><rect class="actor" ry="3" rx="3" height="65" width="150" stroke="#666" fill="#eaeaea" y="155" x="200"></rect><text style="text-anchor: middle;" class="actor" y="192.5" x="275">John</text></g></svg>
